<svg width="24" height="24" viewBox="0 0 24 24" fill="none" xmlns="http://www.w3.org/2000/svg">
<path d="M19.6634 18.8539H19.0422V9.74674C19.0422 5.96728 16.3426 2.84406 12.8303 2.32442V1.28246C12.8303 0.690493 12.3669 0.211029 11.7949 0.211029C11.2229 0.211029 10.7596 0.690493 10.7596 1.28246V2.32442C7.24723 2.84406 4.54761 5.96728 4.54761 9.74674V18.8539H3.92641C3.46828 18.8539 3.09814 19.2369 3.09814 19.711V20.5682C3.09814 20.686 3.19132 20.7825 3.30521 20.7825H8.896C8.896 22.4378 10.1953 23.7825 11.7949 23.7825C13.3945 23.7825 14.6938 22.4378 14.6938 20.7825H20.2846C20.3985 20.7825 20.4917 20.686 20.4917 20.5682V19.711C20.4917 19.2369 20.1216 18.8539 19.6634 18.8539ZM11.7949 22.0682C11.109 22.0682 10.5525 21.4923 10.5525 20.7825H13.0373C13.0373 21.4923 12.4808 22.0682 11.7949 22.0682ZM6.4112 18.8539V9.74674C6.4112 8.25746 6.97028 6.85924 7.98749 5.80657C9.0047 4.75389 10.3558 4.17532 11.7949 4.17532C13.234 4.17532 14.5851 4.75389 15.6023 5.80657C16.6196 6.85924 17.1786 8.25746 17.1786 9.74674V18.8539H6.4112Z" fill="#718096"/>
</svg>
