<svg width="17" height="17" viewBox="0 0 17 17" fill="none" xmlns="http://www.w3.org/2000/svg">
<path d="M9.42472 8.49919L14.1122 2.91169C14.1908 2.81884 14.1247 2.67776 14.0033 2.67776H12.5783C12.4944 2.67776 12.414 2.71526 12.3587 2.77955L8.49258 7.38848L4.62651 2.77955C4.57294 2.71526 4.49258 2.67776 4.40687 2.67776H2.98187C2.86044 2.67776 2.79437 2.81884 2.87294 2.91169L7.56044 8.49919L2.87294 14.0867C2.85534 14.1074 2.84405 14.1327 2.8404 14.1596C2.83676 14.1866 2.84092 14.214 2.85239 14.2386C2.86386 14.2632 2.88216 14.284 2.90511 14.2986C2.92806 14.3131 2.9547 14.3208 2.98187 14.3206H4.40687C4.4908 14.3206 4.57115 14.2831 4.62651 14.2188L8.49258 9.60991L12.3587 14.2188C12.4122 14.2831 12.4926 14.3206 12.5783 14.3206H14.0033C14.1247 14.3206 14.1908 14.1796 14.1122 14.0867L9.42472 8.49919Z" fill="black"/>
</svg>
