<svg width="17" height="16" viewBox="0 0 17 16" fill="none" xmlns="http://www.w3.org/2000/svg">
<path d="M9.42472 7.99919L14.1122 2.41169C14.1908 2.31884 14.1247 2.17776 14.0033 2.17776H12.5783C12.4944 2.17776 12.414 2.21526 12.3587 2.27955L8.49258 6.88848L4.62651 2.27955C4.57294 2.21526 4.49258 2.17776 4.40687 2.17776H2.98187C2.86044 2.17776 2.79437 2.31884 2.87294 2.41169L7.56044 7.99919L2.87294 13.5867C2.85534 13.6074 2.84405 13.6327 2.8404 13.6596C2.83676 13.6866 2.84092 13.714 2.85239 13.7386C2.86386 13.7632 2.88216 13.784 2.90511 13.7986C2.92806 13.8131 2.9547 13.8208 2.98187 13.8206H4.40687C4.4908 13.8206 4.57115 13.7831 4.62651 13.7188L8.49258 9.10991L12.3587 13.7188C12.4122 13.7831 12.4926 13.8206 12.5783 13.8206H14.0033C14.1247 13.8206 14.1908 13.6796 14.1122 13.5867L9.42472 7.99919Z" fill="black"/>
</svg>
